<?xml version="1.0" encoding="UTF-8"?><svg id="a" xmlns="http://www.w3.org/2000/svg" viewBox="0 0 1366 768"><defs><style>.b{fill:#484848;}</style></defs><path class="b" d="M735.04,556.83c-3.66,0-6.69,1.41-9.07,4.23-2.39,2.82-3.58,7.11-3.58,12.87s1.18,10.16,3.55,12.96c2.36,2.8,5.34,4.2,8.92,4.2s6.59-1.38,8.92-4.13,3.49-7.18,3.49-13.27c0-5.68-1.17-9.91-3.52-12.68-2.34-2.78-5.25-4.17-8.7-4.17Z"/><path class="b" d="M903.7,554.43c-3.99,0-7.18,1.58-9.57,4.75-1.52,1.97-2.49,4.92-2.9,8.82h24.75c-.49-4.85-1.8-8.33-3.92-10.43-2.12-2.1-4.91-3.15-8.36-3.15Z"/><path class="b" d="M1170.29,556.83c-3.66,0-6.69,1.41-9.07,4.23-2.39,2.82-3.58,7.11-3.58,12.87s1.18,10.16,3.55,12.96c2.36,2.8,5.34,4.2,8.92,4.2s6.59-1.38,8.92-4.13,3.49-7.18,3.49-13.27c0-5.68-1.17-9.91-3.52-12.68-2.35-2.78-5.25-4.17-8.7-4.17Z"/><path class="b" d="M1322.6,472.23V178.7h-83.22v102.86c-8.1-8.64-17.38-15.12-27.84-19.44-10.46-4.32-22.11-6.48-34.93-6.48-26.32,0-48.02,9.45-65.1,28.35-17.08,18.9-25.61,46.17-25.61,81.8,0,31.86,7.73,58.92,23.19,81.19,7.82,11.27,17.42,19.68,28.78,25.24h-142.99c5.06-1.71,9.7-3.67,13.89-5.91,17.55-9.38,32.53-24.87,44.95-46.47l-81.19-7.49c-5.13,6.48-9.92,11-14.37,13.57-7.29,4.05-14.98,6.07-23.08,6.07-12.83,0-23.22-4.66-31.18-13.97-5.67-6.48-9.25-16.33-10.73-29.56h165.22v-9.31c0-28.35-4.66-51.36-13.97-69.04-9.31-17.68-22.88-31.18-40.7-40.5-17.82-9.31-42.12-13.97-72.89-13.97-37.93,0-67.66,10.4-89.19,31.18-21.53,20.79-32.3,47.99-32.3,81.6,0,23.62,5.37,44.18,16.1,61.65,10.73,17.48,24.26,30.24,40.6,38.27,2.89,1.42,5.99,2.71,9.26,3.88h-162.74v-68.78c0-34.42,4.25-57.91,12.76-70.46,5.94-8.91,14.31-13.36,25.11-13.36,5.67,0,13.36,2.02,23.08,6.07l25.51-58.72c-14.45-7.56-27.74-11.34-39.89-11.34s-21.36,2.87-29.26,8.61c-7.9,5.74-15.56,16.23-22.98,31.49v-35.23h-77.14v211.73h-70.46v-151.39h39.28v-60.34h-39.28c0-9.58,.34-15.86,1.01-18.83,1.35-5.4,3.65-9.35,6.88-11.84,3.24-2.5,8.57-3.75,16-3.75,6.07,0,14.04,.81,23.89,2.43l9.11-49.81c-27.54-3.37-48.53-5.06-62.97-5.06-18.09,0-31.82,2.06-41.2,6.18-9.38,4.12-16.67,9.52-21.87,16.2-5.2,6.68-8.74,15.29-10.63,25.82-1.89,10.53-2.84,20.18-2.84,28.95v9.72h-30.78v60.34h30.78v151.39h-61.76V178.7h-82.61V472.23h-43.48c-3.44-7.43-5.72-13.65-6.84-18.66-1.28-5.74-1.92-13.67-1.92-23.79v-94.96c0-10.12-2.02-20.75-6.07-31.89s-9.59-19.74-16.6-25.82c-9.99-8.77-22.47-14.54-37.46-17.31-14.98-2.76-34.83-4.15-59.53-4.15-15.39,0-29.7,1.15-42.93,3.44-13.23,2.3-23.62,5.54-31.18,9.72-10.53,5.81-18.6,12.65-24.2,20.55-5.6,7.9-9.89,18.73-12.86,32.5l78.76,8.3c3.24-9.31,7.49-15.66,12.76-19.03,6.75-4.32,16.87-6.48,30.37-6.48,10.53,0,17.88,2.02,22.07,6.07,4.18,4.05,6.28,11.14,6.28,21.26-10.26,4.05-19.98,7.32-29.16,9.82-9.18,2.5-29.23,6.85-60.14,13.06-25.78,5.13-43.47,12.96-53.05,23.49-9.59,10.53-14.38,23.96-14.38,40.29,0,17.41,6.65,32.06,19.94,43.94,4.3,3.84,9.26,7.05,14.85,9.65h-21.41v162.26H1323.27v-162.26h-.67Zm-419.74-152.2c7.83-10.39,18.29-15.59,31.38-15.59,11.34,0,20.48,3.44,27.44,10.33,6.95,6.88,11.24,18.29,12.86,34.22h-81.19c1.35-12.82,4.52-22.47,9.52-28.95ZM132.13,428.46c-4.52-4.12-6.78-9.41-6.78-15.89,0-5.67,2.29-10.73,6.88-15.19,4.45-4.32,15.05-8.71,31.79-13.16,12.28-3.1,24.09-6.68,35.43-10.73v13.16c0,10.26-1.65,18.6-4.96,25.01-3.31,6.41-8.91,11.84-16.81,16.3-7.9,4.45-16.44,6.68-25.61,6.68s-15.42-2.06-19.94-6.18Zm37.8,43.77c.66-.25,1.34-.48,1.99-.75,10.66-4.45,21.39-11.88,32.19-22.27,.94,6.21,1.89,10.77,2.83,13.67,.74,2.29,2.18,5.42,4.27,9.35h-41.29Zm186.7,59.05c-3-.49-5.43-.74-7.28-.74-2.26,0-3.89,.38-4.87,1.14s-1.69,1.96-2.1,3.61c-.21,.9-.31,2.82-.31,5.74h11.97v18.39h-11.97v47.15h-25.18v-47.15h-9.38v-18.39h9.38v-2.96c0-2.67,.29-5.61,.86-8.82,.58-3.21,1.66-5.83,3.24-7.87,1.58-2.04,3.81-3.68,6.66-4.94,2.86-1.25,7.04-1.88,12.56-1.88,4.4,0,10.8,.51,19.19,1.54l-2.78,15.18Zm32.71,75.29h-25.12v-65.54h25.12v65.54Zm0-73.37h-25.12v-17.09h25.12v17.09Zm42.09,73.37h-25.18v-90.47h25.18v90.47Zm127.43,0h-25.18v-37.33c0-2.96-.57-5.16-1.72-6.6-1.68-2.26-3.77-3.39-6.27-3.39-2.95,0-5.33,1.07-7.13,3.21s-2.71,5.57-2.71,10.31v33.82h-25.18v-36.1c0-2.88-.17-4.83-.5-5.86-.54-1.65-1.47-2.97-2.79-3.98-1.32-1.01-2.87-1.51-4.64-1.51-2.89,0-5.26,1.09-7.12,3.27-1.86,2.18-2.79,5.76-2.79,10.74v33.45h-25.18v-65.54h23.45v9.57c3.38-3.99,6.79-6.83,10.23-8.52,3.44-1.69,7.59-2.53,12.45-2.53,5.23,0,9.37,.93,12.42,2.78,3.05,1.85,5.54,4.61,7.48,8.27,3.94-4.28,7.54-7.19,10.79-8.73,3.25-1.54,7.25-2.31,12.02-2.31,7.03,0,12.51,2.09,16.45,6.26,3.94,4.18,5.92,10.71,5.92,19.59v41.16Zm619.18-277.43c6.48-7.96,14.51-11.95,24.09-11.95,10.93,0,19.97,4.15,27.13,12.45,7.15,8.3,10.73,20.89,10.73,37.76,0,18.63-3.51,32.06-10.53,40.29-7.02,8.24-15.79,12.35-26.32,12.35-9.85,0-18.12-4.08-24.8-12.25-6.68-8.17-10.02-21.02-10.02-38.57,0-18.76,3.24-32.12,9.72-40.09Zm-495.75,267.4c-3,3.64-6.84,6.47-11.51,8.48-4.67,2.02-10.6,3.02-17.8,3.02s-12.74-.65-17.37-1.94c-4.63-1.29-8.61-3.39-11.94-6.29-3.33-2.9-5.95-6.3-7.84-10.2-1.89-3.9-2.84-9.08-2.84-15.54s1.15-12.35,3.46-16.83c1.69-3.29,3.99-6.24,6.91-8.85s5.92-4.55,9.01-5.83c4.9-2.01,11.17-3.02,18.82-3.02,10.7,0,18.85,1.91,24.47,5.74,5.62,3.83,9.55,9.42,11.82,16.79l-23.64,3.15c-.74-2.8-2.09-4.91-4.04-6.32-1.95-1.42-4.58-2.13-7.87-2.13-4.16,0-7.52,1.49-10.09,4.47-2.57,2.98-3.86,7.48-3.86,13.52,0,5.38,1.27,9.47,3.83,12.26,2.55,2.79,5.8,4.19,9.75,4.19,3.29,0,6.06-.84,8.3-2.53,2.24-1.69,3.92-4.28,5.03-7.78l23.88,2.71c-1.32,4.98-3.48,9.29-6.48,12.93Zm80.19,1.85c-6.69,6.44-15.93,9.66-27.74,9.66-10.53,0-19.05-2.67-25.55-8.02-7.98-6.62-11.97-15.3-11.97-26.04,0-10,3.37-18.23,10.12-24.71,6.75-6.48,15.86-9.72,27.34-9.72,13.12,0,23.04,3.81,29.75,11.42,5.39,6.13,8.08,13.68,8.08,22.65,0,10.08-3.34,18.34-10.03,24.78Zm48.17,8.18h-25.18v-90.47h25.18v90.47Zm42.09,0h-25.18v-90.47h25.18v90.47Zm88.8-26.54h-50.36c.45,4.03,1.54,7.03,3.27,9.01,2.43,2.84,5.59,4.26,9.5,4.26,2.47,0,4.81-.62,7.03-1.85,1.36-.78,2.82-2.16,4.38-4.13l24.75,2.28c-3.79,6.58-8.35,11.3-13.7,14.16-5.35,2.86-13.02,4.29-23.02,4.29-8.68,0-15.51-1.22-20.49-3.67s-9.1-6.34-12.37-11.66c-3.27-5.33-4.91-11.59-4.91-18.79,0-10.24,3.28-18.53,9.84-24.87,6.56-6.34,15.62-9.5,27.18-9.5,9.38,0,16.79,1.42,22.22,4.26s9.57,6.95,12.4,12.34c2.84,5.39,4.26,12.4,4.26,21.04v2.84Zm77.82,16.51c-3,3.64-6.84,6.47-11.51,8.48-4.67,2.02-10.6,3.02-17.8,3.02s-12.74-.65-17.37-1.94c-4.63-1.29-8.61-3.39-11.94-6.29-3.33-2.9-5.95-6.3-7.84-10.2-1.89-3.9-2.84-9.08-2.84-15.54s1.15-12.35,3.46-16.83c1.69-3.29,3.99-6.24,6.91-8.85,2.92-2.61,5.93-4.55,9.01-5.83,4.89-2.01,11.17-3.02,18.82-3.02,10.7,0,18.85,1.91,24.47,5.74,5.61,3.83,9.55,9.42,11.82,16.79l-23.64,3.15c-.74-2.8-2.09-4.91-4.04-6.32s-4.58-2.13-7.87-2.13c-4.16,0-7.52,1.49-10.09,4.47-2.57,2.98-3.86,7.48-3.86,13.52,0,5.38,1.28,9.47,3.83,12.26,2.55,2.79,5.8,4.19,9.75,4.19,3.29,0,6.06-.84,8.3-2.53,2.24-1.69,3.92-4.28,5.03-7.78l23.88,2.71c-1.32,4.98-3.48,9.29-6.48,12.93Zm45.67,11.51c-6.25,0-10.86-.8-13.82-2.4-2.96-1.6-5.15-4.04-6.57-7.3-1.42-3.27-2.13-8.56-2.13-15.87v-23.05h-9.26v-18.39h9.26v-12.03l25.18-12.9v24.93h13.82v18.39h-13.82v23.22c0,2.79,.27,4.64,.8,5.54,.82,1.4,2.26,2.09,4.32,2.09,1.85,0,4.44-.53,7.77-1.6l1.85,17.34c-6.21,1.36-12.01,2.04-17.4,2.04Zm54.49-1.48h-25.12v-65.54h25.12v65.54Zm0-73.37h-25.12v-17.09h25.12v17.09Zm78.22,65.2c-6.69,6.44-15.93,9.66-27.74,9.66-10.53,0-19.05-2.67-25.55-8.02-7.98-6.62-11.97-15.3-11.97-26.04,0-10,3.37-18.23,10.12-24.71,6.75-6.48,15.86-9.72,27.34-9.72,13.12,0,23.04,3.81,29.75,11.42,5.39,6.13,8.08,13.68,8.08,22.65,0,10.08-3.34,18.34-10.03,24.78Zm18.17-127.31c8.91-4.72,18.76-13.84,29.56-27.33v28.48h-31.94c.79-.38,1.6-.74,2.38-1.15Zm73.26,135.49h-25.24v-36.04c0-4.11-.76-7.02-2.28-8.73-1.52-1.71-3.66-2.56-6.42-2.56-3.05,0-5.51,1.15-7.41,3.46s-2.84,6.44-2.84,12.4v31.47h-25.12v-65.54h23.39v10.68c3.5-4.36,7.03-7.48,10.62-9.35,3.58-1.87,7.94-2.81,13.08-2.81,6.95,0,12.39,2.07,16.32,6.2,3.93,4.13,5.89,10.52,5.89,19.16v41.65Z"/><g><path class="b" d="M94.43,151.48v24.93h13.82v18.39h-13.82v23.22c0,2.79,.27,4.64,.8,5.54,.82,1.4,2.26,2.09,4.32,2.09,1.85,0,4.44-.53,7.78-1.6l1.85,17.34c-6.21,1.36-12.01,2.04-17.4,2.04-6.25,0-10.86-.8-13.82-2.4s-5.15-4.04-6.57-7.3c-1.42-3.27-2.13-8.56-2.13-15.87v-23.05h-9.26v-18.39h9.26v-12.03l25.18-12.9Z"/><path class="b" d="M120.22,151.48h25.12v33.32c3.42-3.54,6.81-6.07,10.18-7.59,3.37-1.52,7.36-2.28,11.97-2.28,6.83,0,12.21,2.08,16.14,6.23,3.93,4.16,5.89,10.53,5.89,19.13v41.66h-25.24v-36.04c0-4.11-.76-7.02-2.28-8.73-1.52-1.71-3.66-2.56-6.42-2.56-3.04,0-5.51,1.15-7.41,3.46-1.89,2.3-2.84,6.44-2.84,12.4v31.47h-25.12v-90.47Z"/><path class="b" d="M277.28,215.41h-50.36c.45,4.03,1.54,7.04,3.27,9.01,2.43,2.84,5.59,4.26,9.5,4.26,2.47,0,4.81-.62,7.04-1.85,1.36-.78,2.82-2.16,4.38-4.13l24.75,2.28c-3.79,6.58-8.35,11.3-13.7,14.16-5.35,2.86-13.02,4.29-23.02,4.29-8.68,0-15.51-1.22-20.49-3.67-4.98-2.45-9.1-6.33-12.37-11.66-3.27-5.33-4.91-11.59-4.91-18.79,0-10.24,3.28-18.53,9.84-24.87,6.56-6.34,15.62-9.5,27.18-9.5,9.38,0,16.79,1.42,22.22,4.26s9.57,6.95,12.4,12.34c2.84,5.39,4.26,12.4,4.26,21.04v2.84Zm-25.55-12.03c-.49-4.85-1.8-8.33-3.92-10.43-2.12-2.1-4.91-3.15-8.36-3.15-3.99,0-7.18,1.58-9.57,4.75-1.52,1.97-2.49,4.92-2.9,8.82h24.75Z"/></g></svg>